<?xml version="1.0" encoding="utf-8"?>
<!-- Generator: Adobe Illustrator 25.0.0, SVG Export Plug-In . SVG Version: 6.00 Build 0)  -->
<svg version="1.1" xmlns="http://www.w3.org/2000/svg" xmlns:xlink="http://www.w3.org/1999/xlink" x="0px" y="0px"
	 viewBox="0 0 1280 733" style="enable-background:new 0 0 1280 733;" xml:space="preserve">
<style type="text/css">
	.st0{fill:#FFFFFF;}
	.st1{fill:#F5F5F5;}
	.st2{fill:url(#SVGID_1_);}
	.st3{fill:url(#SVGID_2_);}
	.st4{fill:url(#SVGID_3_);}
	.st5{opacity:0.8;fill:url(#SVGID_4_);}
	.st6{fill:url(#SVGID_5_);}
	.st7{fill:none;stroke:#4DE900;stroke-miterlimit:10;}
	.st8{fill:#EDEEF0;}
	.st9{fill:#E5E9EC;}
	.st10{fill:#5CBEEB;}
	.st11{fill:#DFE2E7;}
	.st12{fill:#53A8D9;}
	.st13{fill:#1E5899;}
	.st14{fill:#438DDF;}
	.st15{fill:#1F5C9D;}
	.st16{fill:#65A4E0;}
	.st17{fill:#03325E;}
	.st18{fill:#205C9C;}
	.st19{fill:#3F89D6;}
	.st20{fill:#FEFFFF;}
	.st21{fill:#69A3E3;}
	.st22{fill:#F7FDFF;}
	.st23{opacity:0.1;fill:#F7FDFF;}
	.st24{fill:#EBECEE;}
	.st25{fill:#E0E2E3;}
	.st26{fill:#FBFBFB;}
	.st27{fill:none;stroke:#FFFFFF;stroke-width:0.25;stroke-miterlimit:10;}
	.st28{fill:#0100B8;}
	.st29{fill:#17283A;}
	.st30{fill:#2B3C4E;}
	.st31{fill:#0C1A28;}
	.st32{fill:#2D5689;}
	.st33{fill:#3E8CCF;}
	.st34{fill:#C98975;}
	.st35{fill:#3271B0;}
	.st36{fill:#37526D;}
	.st37{fill:#003669;}
	.st38{fill:#14477F;}
	.st39{fill:none;stroke:#0D1B3A;stroke-width:0.15;stroke-linecap:round;stroke-linejoin:round;stroke-miterlimit:10;}
	.st40{fill:#030816;}
	.st41{fill:#784A35;}
	.st42{fill:#622412;}
	.st43{fill:#334457;}
	.st44{fill:#AC6448;}
	.st45{opacity:0.7;fill:#182C3E;}
</style>
<g id="фон">
</g>
<g id="Слой_2">
	<linearGradient id="SVGID_1_" gradientUnits="userSpaceOnUse" x1="640" y1="739.6218" x2="640" y2="-1.5819">
		<stop  offset="0" style="stop-color:#EBF0F3"/>
		<stop  offset="0.514" style="stop-color:#EFF3F5"/>
		<stop  offset="0.9949" style="stop-color:#FAFAFA"/>
	</linearGradient>
	<rect class="st2" width="1280" height="733"/>
	<linearGradient id="SVGID_2_" gradientUnits="userSpaceOnUse" x1="512.5288" y1="347.9936" x2="597.2347" y2="486.3466">
		<stop  offset="0.3049" style="stop-color:#E3E8ED"/>
		<stop  offset="1" style="stop-color:#F6F7F9"/>
	</linearGradient>
	<path class="st3" d="M551.4,512.7l-101.3-68.8c-11.2-7.6-14.1-22.8-6.5-34l68.8-101.3c7.6-11.2,22.8-14.1,34-6.5l101.3,68.8
		c11.2,7.6,14.1,22.8,6.5,34l-68.8,101.3C577.8,517.3,562.6,520.2,551.4,512.7z"/>
	<linearGradient id="SVGID_3_" gradientUnits="userSpaceOnUse" x1="1030.415" y1="597.9433" x2="1149.4767" y2="82.2309">
		<stop  offset="0.3125" style="stop-color:#E1E8EB"/>
		<stop  offset="0.584" style="stop-color:#E6EBEE"/>
		<stop  offset="0.8973" style="stop-color:#F4F6F6"/>
		<stop  offset="1" style="stop-color:#FAFAFA"/>
	</linearGradient>
	<path class="st4" d="M1280,140.5v400.8l-164.8,88.9c-34.5,18.6-77.5,5.7-96.1-28.7L873.5,331.6c-18.6-34.5-5.7-77.5,28.7-96.1
		l269.9-145.6c34.5-18.6,77.5-5.7,96.1,28.7L1280,140.5z"/>
	<linearGradient id="SVGID_4_" gradientUnits="userSpaceOnUse" x1="340.4" y1="574.4453" x2="340.4" y2="722.6957">
		<stop  offset="9.754415e-02" style="stop-color:#F0F4F6"/>
		<stop  offset="1" style="stop-color:#EBF0F3"/>
	</linearGradient>
	<polygon class="st5" points="680.8,733 0,733 0,548.6 	"/>
	<linearGradient id="SVGID_5_" gradientUnits="userSpaceOnUse" x1="-8.2139" y1="648.2897" x2="57.6685" y2="740.0544">
		<stop  offset="0.4263" style="stop-color:#E7EEF2"/>
		<stop  offset="1" style="stop-color:#F7F8FA"/>
	</linearGradient>
	<path class="st6" d="M65.8,733H0v-84.6l23.7-4.6c13.3-2.6,26.1,6.1,28.7,19.4L65.8,733z"/>
</g>
</svg>
